<?xml version="1.0" standalone="no"?><!DOCTYPE svg PUBLIC "-//W3C//DTD SVG 1.1//EN" "http://www.w3.org/Graphics/SVG/1.1/DTD/svg11.dtd"><svg t="1764223055292" class="icon" viewBox="0 0 1024 1024" version="1.1" xmlns="http://www.w3.org/2000/svg" p-id="1852" xmlns:xlink="http://www.w3.org/1999/xlink" width="200" height="200"><path d="M128 725.333333V298.666667a170.666667 170.666667 0 0 1 170.666667-170.666667h426.666666a170.666667 170.666667 0 0 1 170.666667 170.666667v426.666666a170.666667 170.666667 0 0 1-170.666667 170.666667H298.666667a170.666667 170.666667 0 0 1-170.666667-170.666667z m85.333333 0q0 35.328 25.002667 60.330667T298.666667 810.666667h426.666666q35.328 0 60.330667-25.002667T810.666667 725.333333V298.666667q0-35.328-25.002667-60.330667T725.333333 213.333333H298.666667q-35.328 0-60.330667 25.002667T213.333333 298.666667v426.666666z" p-id="1853" fill="#ffffff"></path><path d="M479.701333 565.034667L389.12 474.453333a42.666667 42.666667 0 0 0-60.330667 60.373334l120.704 120.661333a42.666667 42.666667 0 0 0 60.501334-0.170667l241.194666-241.194666a42.666667 42.666667 0 0 0-60.373333-60.330667l-211.2 211.2z" p-id="1854" fill="#ffffff"></path></svg>