<?xml version="1.0" standalone="no"?><!DOCTYPE svg PUBLIC "-//W3C//DTD SVG 1.1//EN" "http://www.w3.org/Graphics/SVG/1.1/DTD/svg11.dtd"><svg t="1764162071438" class="icon" viewBox="0 0 1024 1024" version="1.1" xmlns="http://www.w3.org/2000/svg" p-id="7473" xmlns:xlink="http://www.w3.org/1999/xlink" width="200" height="200"><path d="M887.296 100.864H323.754667c-18.773333 0-34.133333 15.36-34.133334 34.133333v322.8672h-152.917333a34.133333 34.133333 0 0 0-34.133333 34.133334v303.445333a127.7952 127.7952 0 0 0 127.2832 127.624533l0.375466 0.068267h563.541334a127.419733 127.419733 0 0 0 127.658666-127.658667V134.997333c0-18.773333-15.018667-34.133333-34.133333-34.133333zM170.837333 795.4432v-269.312h118.784v269.312c0 33.6896-28.808533 59.392-59.392 59.392-32.768 0-59.392-26.624-59.392-59.392z m590.506667-8.840533h-297.984c-19.114667 0-34.133333-15.36-34.133333-34.133334 0-19.114667 15.018667-34.133333 34.133333-34.133333h297.984c19.114667 0 34.133333 15.018667 34.133333 34.133333 0 18.773333-15.018667 34.133333-34.133333 34.133334z m0-160.426667h-297.984c-19.114667 0-34.133333-15.36-34.133333-34.133333s15.018667-34.133333 34.133333-34.133334h297.984c19.114667 0 34.133333 15.36 34.133333 34.133334s-15.018667 34.133333-34.133333 34.133333z m0-160.426667h-297.984c-19.114667 0-34.133333-15.018667-34.133333-34.133333 0-18.773333 15.018667-34.133333 34.133333-34.133333h297.984c19.114667 0 34.133333 15.36 34.133333 34.133333 0 19.114667-15.018667 34.133333-34.133333 34.133333z m0-160.085333h-297.984c-19.114667 0-34.133333-15.36-34.133333-34.133333s15.018667-34.133333 34.133333-34.133334h297.984c19.114667 0 34.133333 15.36 34.133333 34.133334s-15.018667 34.133333-34.133333 34.133333z" p-id="7474" fill="#ffffff"></path></svg>